<?xml version="1.0" encoding="UTF-8" standalone="no"?>
<!-- Created with Inkscape (http://www.inkscape.org/) -->

<svg
   xmlns:dc="http://purl.org/dc/elements/1.1/"
   xmlns:cc="http://creativecommons.org/ns#"
   xmlns:rdf="http://www.w3.org/1999/02/22-rdf-syntax-ns#"
   xmlns:svg="http://www.w3.org/2000/svg"
   xmlns="http://www.w3.org/2000/svg"
   xmlns:sodipodi="http://sodipodi.sourceforge.net/DTD/sodipodi-0.dtd"
   xmlns:inkscape="http://www.inkscape.org/namespaces/inkscape"
   width="210mm"
   height="297mm"
   viewBox="0 0 744.09448819 1052.3622047"
   id="svg2"
   version="1.1"
   inkscape:version="0.91 r13725"
   sodipodi:docname="mech-silhoutte.svg">
  <defs
     id="defs4" />
  <sodipodi:namedview
     id="base"
     pagecolor="#ffffff"
     bordercolor="#666666"
     borderopacity="1.0"
     inkscape:pageopacity="0.0"
     inkscape:pageshadow="2"
     inkscape:zoom="3.959798"
     inkscape:cx="258.67837"
     inkscape:cy="692.72395"
     inkscape:document-units="px"
     inkscape:current-layer="layer1"
     showgrid="true"
     inkscape:window-width="3840"
     inkscape:window-height="2005"
     inkscape:window-x="0"
     inkscape:window-y="0"
     inkscape:window-maximized="1">
    <inkscape:grid
       type="xygrid"
       id="grid4136" />
  </sodipodi:namedview>
  <metadata
     id="metadata7">
    <rdf:RDF>
      <cc:Work
         rdf:about="">
        <dc:format>image/svg+xml</dc:format>
        <dc:type
           rdf:resource="http://purl.org/dc/dcmitype/StillImage" />
        <dc:title></dc:title>
      </cc:Work>
    </rdf:RDF>
  </metadata>
  <g
     inkscape:label="Layer 1"
     inkscape:groupmode="layer"
     id="layer1">
    <path
       style="fill:none;fill-rule:evenodd;stroke:#000000;stroke-width:1px;stroke-linecap:butt;stroke-linejoin:miter;stroke-opacity:1"
       d="m 340,282.36133 0,165 15,15 9.95117,0 0,0.0508 10,0 15,-15 0,-165 -10.17769,9.84899 -29.54632,-0.0254 z"
       id="path4138"
       inkscape:connector-curvature="0"
       sodipodi:nodetypes="ccccccccccc" />
    <path
       style="fill:none;fill-rule:evenodd;stroke:#000000;stroke-width:1px;stroke-linecap:butt;stroke-linejoin:miter;stroke-opacity:1"
       d="m 395,282.3622 55,5 0,60 -25,25 0,50 10,20 0,5 -40,0 z"
       id="path4161"
       inkscape:connector-curvature="0" />
    <path
       style="fill:none;fill-rule:evenodd;stroke:#000000;stroke-width:1px;stroke-linecap:butt;stroke-linejoin:miter;stroke-opacity:1"
       d="m 335.14719,282.46117 -55,5 0,60 25,25 0,50 -10,20 0,5 40,0 z"
       id="path4161-7"
       inkscape:connector-curvature="0" />
    <path
       style="fill:none;fill-rule:evenodd;stroke:#000000;stroke-width:1px;stroke-linecap:butt;stroke-linejoin:miter;stroke-opacity:1"
       d="m 338.42344,452.36603 10.40355,9.64593 -23.48605,20.60661 -5.35279,39.8972 -1.51523,85.65864 4.6967,5.70685 0,8.93909 -49.69797,-0.75762 0.50507,-8.93909 3.93909,-5.45431 0.75762,-85.15229 15.48032,-70.43085 z"
       id="path4159-4"
       inkscape:connector-curvature="0"
       sodipodi:nodetypes="ccccccccccccc" />
    <path
       style="fill:none;fill-rule:evenodd;stroke:#000000;stroke-width:1px;stroke-linecap:butt;stroke-linejoin:miter;stroke-opacity:1"
       d="m 391.52201,452.67188 -10.40355,9.64593 23.48605,20.60661 5.35279,39.8972 1.51523,85.65864 -4.6967,5.70685 0,8.93909 49.69797,-0.75762 -0.50507,-8.93909 -3.93909,-5.45431 -0.75762,-85.15229 -15.48032,-70.43085 z"
       id="path4159-4-6"
       inkscape:connector-curvature="0"
       sodipodi:nodetypes="ccccccccccccc" />
    <path
       style="fill:none;fill-rule:evenodd;stroke:#000000;stroke-width:1px;stroke-linecap:butt;stroke-linejoin:miter;stroke-opacity:1"
       d="M 262.55273 282.07422 C 259.70325 282.02684 256.52957 282.75195 253.21484 284.86133 C 241.42912 292.36133 240 307.36133 240 307.36133 L 225 372.36133 L 221.42773 432.36133 L 226.42773 437.36133 L 230 437.41602 L 230 447.00586 C 230 447.00586 225.35798 444.50474 226.07227 458.07617 C 226.78655 471.6476 245 467.00586 245 467.00586 L 245 457.00586 L 250 452.00586 L 245.21289 437.64648 L 250 437.71875 L 255 432.71875 L 260 373.07617 L 275 327.36133 L 275 287.36133 C 275 287.36133 269.83474 282.1953 262.55273 282.07422 z "
       id="path4208" />
    <path
       inkscape:connector-curvature="0"
       style="fill:none;fill-rule:evenodd;stroke:#000000;stroke-width:1px;stroke-linecap:butt;stroke-linejoin:miter;stroke-opacity:1"
       d="m 467.7911,281.35993 c 2.84948,-0.0474 6.02316,0.67773 9.33789,2.78711 11.78572,7.5 13.21484,22.5 13.21484,22.5 l 15,65 3.57227,60 -5,5 -3.57227,0.0547 0,9.58984 c 0,0 4.64202,-2.50112 3.92773,11.07031 -0.71428,13.57142 -18.92773,8.92968 -18.92773,8.92968 l 0,-10 -5,-5 4.78711,-14.35938 -4.78711,0.0723 -5,-5 -5,-59.64258 -15,-45.71484 0,-40 c 0,0 5.16526,-5.16603 12.44727,-5.28711 z"
       id="path4208-9" />
    <path
       style="fill:none;fill-rule:evenodd;stroke:#000000;stroke-width:1px;stroke-linecap:butt;stroke-linejoin:miter;stroke-opacity:1"
       d="m 391.96909,272.24223 -14.94878,14.66693 -25,0 -14.92449,-14.29315 0.52982,-25.45739 c 0,0 6.51958,-21.56691 26.94697,-20.68166 20.42739,0.88524 27.70722,20.53373 27.70722,20.53373 z"
       id="path4228"
       inkscape:connector-curvature="0"
       sodipodi:nodetypes="ccccczcc" />
  </g>
</svg>
